<?xml version="1.0" encoding="utf-8"?>
<!-- Generator: Adobe Illustrator 24.1.0, SVG Export Plug-In . SVG Version: 6.00 Build 0)  -->
<svg version="1.1" id="Layer_1" xmlns="http://www.w3.org/2000/svg" xmlns:xlink="http://www.w3.org/1999/xlink" x="0px" y="0px"
	 viewBox="0 0 135.1 30.2" style="enable-background:new 0 0 135.1 30.2;" xml:space="preserve">
<style type="text/css">
	.st0{fill:#8B8B8C;}
	.st1{fill:#C3C0BF;}
</style>
<rect x="39" y="0" class="st0" width="15" height="6"/>
<rect x="9.8" y="0" class="st0" width="6" height="19.5"/>
<rect x="19.5" y="0" class="st0" width="6" height="28.5"/>
<rect y="0" class="st0" width="6" height="28.5"/>
<rect x="39" y="9.8" class="st0" width="6" height="18.8"/>
<rect x="29.2" y="0" class="st0" width="6" height="6"/>
<rect x="29.2" y="9.8" class="st1" width="6" height="18.8"/>
<g>
	<path class="st0" d="M66.8,0h2.4l1.2,5h0l1.2-5h2.4v6.7h-1.6V1.5h0l-1.3,5.2h-1.5l-1.4-5.2h0v5.2h-1.5L66.8,0L66.8,0z"/>
	<path class="st0" d="M79.5,5.6c0,0.3,0,0.7,0.1,1h-1.3c-0.1-0.2-0.1-0.3-0.1-0.5h0c-0.2,0.4-1,0.6-1.5,0.6c-1,0-1.7-0.5-1.7-1.5
		c0-1.2,1-1.6,2.6-1.8l0.5-0.1V3c0-0.4-0.3-0.5-0.7-0.5c-0.5,0-0.7,0.2-0.8,0.7h-1.4c0-1.4,1.4-1.6,2.1-1.6c1.4,0,2.2,0.3,2.2,1.4
		L79.5,5.6L79.5,5.6z M78.1,4.3l-1,0.3c-0.4,0.1-0.7,0.2-0.7,0.6c0,0.4,0.3,0.6,0.7,0.6c0.6,0,1-0.4,1-1.1L78.1,4.3L78.1,4.3z"/>
	<path class="st0" d="M84.1,3.2c-0.3-0.3-0.9-0.5-1.4-0.5c-0.4,0-0.6,0.1-0.6,0.4c0,0.9,3,0.2,3,2c0,1.3-1.2,1.8-2.2,1.8
		c-1.1,0-1.7-0.3-2.4-1L81.3,5c0.5,0.4,0.9,0.7,1.6,0.7c0.2,0,0.8-0.1,0.8-0.5c0-0.8-3-0.2-3-1.9c0-1.3,1.1-1.7,2.1-1.7
		c0.8,0,1.5,0.3,2.2,0.7L84.1,3.2z"/>
	<path class="st0" d="M89.3,3.2C89,2.8,88.4,2.6,88,2.6c-0.4,0-0.6,0.1-0.6,0.4c0,0.9,3,0.2,3,2c0,1.3-1.2,1.8-2.2,1.8
		c-1.1,0-1.7-0.3-2.4-1L86.5,5c0.5,0.4,0.9,0.7,1.6,0.7c0.2,0,0.8-0.1,0.8-0.5c0-0.8-3-0.2-3-1.9c0-1.3,1.1-1.7,2.1-1.7
		c0.8,0,1.5,0.3,2.2,0.7L89.3,3.2z"/>
	<path class="st0" d="M95.5,5.6c0,0.3,0,0.7,0.1,1h-1.4c-0.1-0.2-0.1-0.3-0.1-0.5h0c-0.2,0.4-1,0.6-1.5,0.6c-1,0-1.7-0.5-1.7-1.5
		c0-1.2,1-1.6,2.6-1.8l0.5-0.1V3c0-0.4-0.3-0.5-0.7-0.5c-0.5,0-0.7,0.2-0.8,0.7h-1.4c0-1.4,1.4-1.6,2.1-1.6c1.4,0,2.2,0.3,2.2,1.4
		L95.5,5.6L95.5,5.6z M94.1,4.3l-1,0.3c-0.4,0.1-0.7,0.2-0.7,0.6c0,0.4,0.3,0.6,0.7,0.6c0.6,0,1-0.4,1-1.1L94.1,4.3L94.1,4.3z"/>
	<path class="st0" d="M100.1,3.4c-0.3-0.6-0.7-0.7-0.9-0.7c-0.8,0-1.1,0.6-1.1,1.5c0,0.9,0.4,1.5,1.1,1.5c0.5,0,0.8-0.2,1-0.7l1,0.5
		c-0.4,0.8-1.3,1.3-2.2,1.3c-1.5,0-2.5-0.9-2.5-2.6c0-1.6,1.1-2.6,2.5-2.6c0.9,0,1.8,0.3,2.2,1.2L100.1,3.4z"/>
	<path class="st0" d="M102.1,0h1.5v2.2h0c0.3-0.4,0.9-0.6,1.4-0.6c1.1,0,1.6,0.6,1.6,1.6v3.5H105v-3c0-0.8-0.4-0.9-0.7-0.9
		c-0.3,0-0.8,0.2-0.8,1.1v2.8h-1.5L102.1,0L102.1,0z"/>
	<path class="st0" d="M112.2,6.7h-1.5V6.2c-0.4,0.4-1,0.6-1.4,0.6c-1.2,0-1.5-0.7-1.5-1.4V1.7h1.5V5c0,0.4,0.2,0.7,0.7,0.7
		c0.4,0,0.8-0.2,0.8-0.8V1.7h1.5L112.2,6.7L112.2,6.7z"/>
	<path class="st0" d="M116.8,3.2c-0.3-0.3-0.9-0.5-1.4-0.5c-0.4,0-0.6,0.1-0.6,0.4c0,0.9,3,0.2,3,2c0,1.3-1.2,1.8-2.2,1.8
		s-1.7-0.3-2.4-1l0.9-0.8c0.4,0.4,0.9,0.7,1.6,0.7c0.2,0,0.8-0.1,0.8-0.5c0-0.8-3-0.2-3-1.9c0-1.3,1.1-1.7,2.1-1.7
		c0.8,0,1.5,0.3,2.2,0.7L116.8,3.2z"/>
	<path class="st0" d="M119.9,4.5c0,1,0.6,1.3,1.1,1.3c0.5,0,0.8-0.3,1.2-0.9l1.1,0.6c-0.5,0.9-1.3,1.4-2.4,1.4
		c-1.5,0-2.4-1.1-2.4-2.5c0-1.8,0.9-2.8,2.4-2.8c1.8,0,2.4,1.4,2.4,2.9L119.9,4.5L119.9,4.5z M121.8,3.6c0-0.7-0.6-1-1-1
		s-0.9,0.3-1,1C119.8,3.6,121.8,3.6,121.8,3.6z"/>
	<path class="st0" d="M126.8,2.7h-0.9v2.4c0,0.4,0.2,0.5,0.5,0.5c0.2,0,0.4,0,0.4,0v1.2c-0.2,0-0.6,0.1-0.9,0.1
		c-1.2,0-1.4-0.8-1.4-1.5V2.7h-0.7V1.8h0.7V0.4h1.5v1.4h0.9L126.8,2.7L126.8,2.7z"/>
	<path class="st0" d="M130.1,2.7h-0.9v2.4c0,0.4,0.2,0.5,0.5,0.5c0.2,0,0.4,0,0.4,0v1.2c-0.2,0-0.6,0.1-0.9,0.1
		c-1.2,0-1.4-0.8-1.4-1.5V2.7H127V1.8h0.7V0.4h1.5v1.4h0.9L130.1,2.7L130.1,2.7z"/>
	<path class="st0" d="M134.1,3.2c-0.3-0.3-0.9-0.5-1.4-0.5c-0.4,0-0.6,0.1-0.6,0.4c0,0.9,3,0.2,3,2c0,1.3-1.2,1.8-2.2,1.8
		s-1.7-0.3-2.4-1l0.9-0.8c0.4,0.4,0.9,0.7,1.6,0.7c0.2,0,0.8-0.1,0.8-0.5c0-0.8-3-0.2-3-1.9c0-1.3,1.1-1.7,2.1-1.7
		c0.8,0,1.5,0.3,2.2,0.7L134.1,3.2z"/>
	<path class="st0" d="M66.8,10.9h1.7v6.7h-1.7V10.9z"/>
	<path class="st0" d="M69.8,12.6h1.5v0.4c0.4-0.4,1-0.6,1.4-0.6c1.2,0,1.5,0.7,1.5,1.4v3.7h-1.5v-3.1c0-0.5-0.1-0.8-0.7-0.8
		c-0.6,0-0.8,0.4-0.8,0.8v3.1h-1.5C69.8,17.6,69.8,12.6,69.8,12.6z"/>
	<path class="st0" d="M78.7,14.1c-0.3-0.3-0.9-0.5-1.4-0.5c-0.4,0-0.6,0.1-0.6,0.4c0,0.9,3,0.1,3,2c0,1.3-1.2,1.8-2.2,1.8
		c-1.1,0-1.7-0.3-2.4-1l0.9-0.8c0.5,0.4,0.9,0.7,1.6,0.7c0.2,0,0.8-0.1,0.8-0.5c0-0.8-3-0.2-3-1.9c0-1.3,1.1-1.7,2.1-1.7
		c0.8,0,1.5,0.3,2.2,0.7L78.7,14.1z"/>
	<path class="st0" d="M83.2,13.6h-0.9v2.4c0,0.4,0.2,0.5,0.5,0.5c0.2,0,0.4,0,0.4,0v1.2c-0.2,0-0.6,0.1-0.9,0.1
		c-1.2,0-1.4-0.8-1.4-1.5v-2.6h-0.7v-0.9h0.7v-1.4h1.5v1.4h0.9L83.2,13.6C83.2,13.6,83.2,13.6,83.2,13.6z"/>
	<path class="st0" d="M84,12.1v-1.1h1.5v1.1H84z M85.5,12.6v5H84v-5C84,12.6,85.5,12.6,85.5,12.6z"/>
	<path class="st0" d="M89.3,13.6h-0.9v2.4c0,0.4,0.2,0.5,0.5,0.5c0.2,0,0.4,0,0.4,0v1.2c-0.2,0-0.6,0.1-0.9,0.1
		c-1.2,0-1.4-0.8-1.4-1.5v-2.6h-0.7v-0.9h0.7v-1.4h1.5v1.4h0.9L89.3,13.6C89.3,13.6,89.3,13.6,89.3,13.6z"/>
	<path class="st0" d="M94.5,17.6h-1.5v-0.4c-0.4,0.4-1,0.6-1.4,0.6c-1.2,0-1.5-0.7-1.5-1.4v-3.7h1.5v3.3c0,0.4,0.2,0.7,0.7,0.7
		c0.4,0,0.8-0.2,0.8-0.8v-3.2h1.5L94.5,17.6L94.5,17.6z"/>
	<path class="st0" d="M98.3,13.6h-0.9v2.4c0,0.4,0.2,0.5,0.5,0.5c0.2,0,0.4,0,0.4,0v1.2c-0.2,0-0.6,0.1-0.9,0.1
		c-1.2,0-1.4-0.8-1.4-1.5v-2.6h-0.7v-0.9H96v-1.4h1.5v1.4h0.9L98.3,13.6C98.3,13.6,98.3,13.6,98.3,13.6z"/>
	<path class="st0" d="M100.2,15.4c0,1,0.6,1.3,1.1,1.3c0.5,0,0.8-0.3,1.2-0.9l1.1,0.6c-0.5,0.9-1.3,1.4-2.4,1.4
		c-1.5,0-2.4-1.1-2.4-2.5c0-1.8,0.9-2.8,2.4-2.8c1.8,0,2.4,1.4,2.4,2.9L100.2,15.4L100.2,15.4z M102.2,14.5c0-0.7-0.6-1-1-1
		c-0.4,0-0.9,0.3-1,1H102.2z"/>
	<path class="st0" d="M112.2,15.1c0,1.7-1.1,2.6-2.7,2.6s-2.7-0.9-2.7-2.6c0-1.7,1.1-2.6,2.7-2.6C111.1,12.5,112.2,13.4,112.2,15.1z
		 M108.4,15.1c0,0.9,0.4,1.5,1.2,1.5s1.2-0.6,1.2-1.6c0-0.8-0.4-1.4-1.2-1.4S108.4,14.3,108.4,15.1z"/>
	<path class="st0" d="M113.4,13.6h-0.8v-0.9h0.8v-0.5c0-0.6,0.2-1.4,1.4-1.4c0.3,0,0.8,0,1,0.1V12h-0.4c-0.3,0-0.5,0.1-0.5,0.4v0.3
		h0.9v0.9h-0.9v4h-1.5V13.6L113.4,13.6z"/>
	<path class="st0" d="M65.1,21.8h5.2v1.3h-1.7v5.4h-1.7v-5.4h-1.7L65.1,21.8L65.1,21.8z"/>
	<path class="st0" d="M71.4,26.3c0,1,0.6,1.3,1.1,1.3c0.5,0,0.8-0.3,1.2-0.9l1.1,0.6c-0.5,0.9-1.3,1.4-2.4,1.4
		c-1.5,0-2.4-1.1-2.4-2.5c0-1.8,0.9-2.8,2.4-2.8c1.8,0,2.4,1.4,2.4,2.9H71.4z M73.4,25.4c0-0.7-0.6-1-1-1s-0.9,0.3-1,1H73.4z"/>
	<path class="st0" d="M79.1,25.2c-0.3-0.6-0.7-0.7-0.9-0.7c-0.8,0-1.1,0.6-1.1,1.5s0.4,1.5,1.1,1.5c0.5,0,0.8-0.2,1-0.7l1,0.5
		c-0.4,0.8-1.3,1.3-2.2,1.3c-1.5,0-2.5-0.9-2.5-2.6c0-1.6,1.1-2.6,2.5-2.6c0.9,0,1.8,0.3,2.2,1.2L79.1,25.2z"/>
	<path class="st0" d="M81.1,21.8h1.5V24h0c0.3-0.4,0.9-0.6,1.4-0.6c1.1,0,1.6,0.6,1.6,1.6v3.5H84v-3c0-0.8-0.4-0.9-0.7-0.9
		c-0.3,0-0.8,0.2-0.8,1.1v2.8h-1.5L81.1,21.8L81.1,21.8z"/>
	<path class="st0" d="M86.8,23.5h1.5V24c0.4-0.4,1-0.6,1.4-0.6c1.2,0,1.5,0.7,1.5,1.4v3.7h-1.5v-3.1c0-0.5-0.1-0.8-0.7-0.8
		c-0.6,0-0.8,0.4-0.8,0.8v3.1h-1.5L86.8,23.5L86.8,23.5z"/>
	<path class="st0" d="M97.5,26c0,1.7-1.1,2.6-2.7,2.6s-2.7-0.9-2.7-2.6s1.1-2.6,2.7-2.6C96.4,23.4,97.5,24.3,97.5,26z M93.6,26
		c0,0.9,0.4,1.5,1.2,1.5S96,26.9,96,26c0-0.8-0.4-1.4-1.2-1.4S93.6,25.2,93.6,26z"/>
	<path class="st0" d="M98.4,28.5v-6.7h1.5v6.7H98.4L98.4,28.5z"/>
	<path class="st0" d="M106.2,26c0,1.7-1.1,2.6-2.7,2.6c-1.6,0-2.7-0.9-2.7-2.6s1.1-2.6,2.7-2.6C105.1,23.4,106.2,24.3,106.2,26z
		 M102.3,26c0,0.9,0.4,1.5,1.2,1.5s1.2-0.6,1.2-1.6c0-0.8-0.4-1.4-1.2-1.4S102.3,25.2,102.3,26z"/>
	<path class="st0" d="M111.5,23.5v5c0,1.6-1.6,1.6-2.4,1.6c-1.5,0-2.3-0.5-2.3-1.7h1.5c0,0.5,0.3,0.8,0.8,0.8c0.6,0,0.9-0.1,0.9-0.8
		v-0.6c-0.3,0.3-0.9,0.4-1.4,0.4c-1.4,0-1.9-1.1-1.9-2.4c0-1.2,0.6-2.4,2-2.4c0.5,0,1,0.1,1.4,0.5v-0.4L111.5,23.5L111.5,23.5
		L111.5,23.5z M109.1,24.5c-0.5,0-0.9,0.3-0.9,1.3c0,0.6,0.1,1.3,0.9,1.3c0.9,0,1-0.8,1-1.3C110.1,24.8,109.6,24.5,109.1,24.5z"/>
	<path class="st0" d="M112.6,29c0.2,0,0.3,0,0.5,0c0.4,0,0.7-0.1,0.7-0.4c0-0.1,0-0.2-0.1-0.5l-1.5-4.6h1.5l0.8,3.8h0l0.8-3.8h1.6
		l-1.8,5.3c-0.3,0.8-0.6,1.3-1.4,1.3h-1.2L112.6,29L112.6,29z"/>
</g>
</svg>
